<svg width="40" height="28" viewBox="0 0 40 28" fill="none" xmlns="http://www.w3.org/2000/svg">
<path d="M29.45 8.12222L17.575 19.8957M17.575 8.12222L29.45 19.8957M25.7555 26.4889H16.7298C14.4845 26.4889 13.3619 26.4889 12.3277 26.1604C11.8693 26.0148 11.4272 25.8223 11.0083 25.5861C10.0631 25.053 9.29816 24.2314 7.76817 22.588V22.588C4.63274 19.2203 3.06502 17.5365 2.68759 15.5528C2.5231 14.6883 2.5231 13.8006 2.68759 12.936C3.06502 10.9524 4.63274 9.26854 7.76817 5.90085V5.90085C9.29816 4.25754 10.0631 3.43588 11.0083 2.90283C11.4272 2.66658 11.8693 2.47413 12.3277 2.32853C13.3619 2 14.4845 2 16.7298 2H25.7556C30.6659 2 33.121 2 34.8854 3.17729C35.6525 3.68915 36.3108 4.34754 36.8227 5.11464C38 6.87896 38 9.33412 38 14.2444V14.2444C38 19.1548 38 21.6099 36.8227 23.3743C36.3108 24.1413 35.6525 24.7997 34.8854 25.3116C33.121 26.4889 30.6659 26.4889 25.7555 26.4889Z" stroke="#937CE6" stroke-width="3" stroke-linecap="round" stroke-linejoin="round"/>
</svg>
